<?xml version="1.0" encoding="UTF-8" standalone="no"?>
<!DOCTYPE svg PUBLIC "-//W3C//DTD SVG 1.1//EN"
 "http://www.w3.org/Graphics/SVG/1.1/DTD/svg11.dtd">
<!-- Generated by graphviz version 2.43.0 (0)
 -->
<!-- Title: G Pages: 1 -->
<svg width="1163pt" height="314pt"
 viewBox="0.00 0.00 1163.00 314.00" xmlns="http://www.w3.org/2000/svg" xmlns:xlink="http://www.w3.org/1999/xlink">
<g id="graph0" class="graph" transform="scale(1 1) rotate(0) translate(4 310)">
<title>G</title>
<polygon fill="white" stroke="transparent" points="-4,4 -4,-310 1159,-310 1159,4 -4,4"/>
<!-- google_compute_firewall.fw_http_primary -->
<g id="node1" class="node">
<title>google_compute_firewall.fw_http_primary</title>
<polygon fill="none" stroke="black" points="710,-144 406,-144 406,-108 710,-108 710,-144"/>
<text text-anchor="middle" x="558" y="-122.3" font-family="sans-serif" font-size="14.00">google_compute_firewall.fw_http_primary</text>
</g>
<!-- google_compute_network.techvpc_primary -->
<g id="node7" class="node">
<title>google_compute_network.techvpc_primary</title>
<polygon fill="none" stroke="black" points="323,-90 9,-90 9,-54 323,-54 323,-90"/>
<text text-anchor="middle" x="166" y="-68.3" font-family="sans-serif" font-size="14.00">google_compute_network.techvpc_primary</text>
</g>
<!-- google_compute_firewall.fw_http_primary&#45;&gt;google_compute_network.techvpc_primary -->
<g id="edge1" class="edge">
<title>google_compute_firewall.fw_http_primary&#45;&gt;google_compute_network.techvpc_primary</title>
<path fill="none" stroke="black" d="M426.86,-107.98C388.53,-102.67 346.43,-96.84 307.48,-91.45"/>
<polygon fill="black" stroke="black" points="307.51,-87.92 297.12,-90.02 306.55,-94.86 307.51,-87.92"/>
</g>
<!-- google_compute_firewall.fw_http_secondary -->
<g id="node2" class="node">
<title>google_compute_firewall.fw_http_secondary</title>
<polygon fill="none" stroke="black" points="718.5,-306 397.5,-306 397.5,-270 718.5,-270 718.5,-306"/>
<text text-anchor="middle" x="558" y="-284.3" font-family="sans-serif" font-size="14.00">google_compute_firewall.fw_http_secondary</text>
</g>
<!-- google_compute_network.techvpc_secondary -->
<g id="node8" class="node">
<title>google_compute_network.techvpc_secondary</title>
<polygon fill="none" stroke="black" points="332,-252 0,-252 0,-216 332,-216 332,-252"/>
<text text-anchor="middle" x="166" y="-230.3" font-family="sans-serif" font-size="14.00">google_compute_network.techvpc_secondary</text>
</g>
<!-- google_compute_firewall.fw_http_secondary&#45;&gt;google_compute_network.techvpc_secondary -->
<g id="edge2" class="edge">
<title>google_compute_firewall.fw_http_secondary&#45;&gt;google_compute_network.techvpc_secondary</title>
<path fill="none" stroke="black" d="M426.86,-269.98C388.53,-264.67 346.43,-258.84 307.48,-253.45"/>
<polygon fill="black" stroke="black" points="307.51,-249.92 297.12,-252.02 306.55,-256.86 307.51,-249.92"/>
</g>
<!-- google_compute_firewall.fw_ssh_primary -->
<g id="node3" class="node">
<title>google_compute_firewall.fw_ssh_primary</title>
<polygon fill="none" stroke="black" points="707.5,-90 408.5,-90 408.5,-54 707.5,-54 707.5,-90"/>
<text text-anchor="middle" x="558" y="-68.3" font-family="sans-serif" font-size="14.00">google_compute_firewall.fw_ssh_primary</text>
</g>
<!-- google_compute_firewall.fw_ssh_primary&#45;&gt;google_compute_network.techvpc_primary -->
<g id="edge3" class="edge">
<title>google_compute_firewall.fw_ssh_primary&#45;&gt;google_compute_network.techvpc_primary</title>
<path fill="none" stroke="black" d="M408.45,-72C383.94,-72 358.41,-72 333.5,-72"/>
<polygon fill="black" stroke="black" points="333.25,-68.5 323.25,-72 333.25,-75.5 333.25,-68.5"/>
</g>
<!-- google_compute_firewall.fw_ssh_secondary -->
<g id="node4" class="node">
<title>google_compute_firewall.fw_ssh_secondary</title>
<polygon fill="none" stroke="black" points="716.5,-252 399.5,-252 399.5,-216 716.5,-216 716.5,-252"/>
<text text-anchor="middle" x="558" y="-230.3" font-family="sans-serif" font-size="14.00">google_compute_firewall.fw_ssh_secondary</text>
</g>
<!-- google_compute_firewall.fw_ssh_secondary&#45;&gt;google_compute_network.techvpc_secondary -->
<g id="edge4" class="edge">
<title>google_compute_firewall.fw_ssh_secondary&#45;&gt;google_compute_network.techvpc_secondary</title>
<path fill="none" stroke="black" d="M399.5,-234C380.68,-234 361.38,-234 342.33,-234"/>
<polygon fill="black" stroke="black" points="342.09,-230.5 332.09,-234 342.09,-237.5 342.09,-230.5"/>
</g>
<!-- google_compute_instance.tech&#45;instance&#45;primary -->
<g id="node5" class="node">
<title>google_compute_instance.tech&#45;instance&#45;primary</title>
<polygon fill="none" stroke="black" points="1146.5,-36 792.5,-36 792.5,0 1146.5,0 1146.5,-36"/>
<text text-anchor="middle" x="969.5" y="-14.3" font-family="sans-serif" font-size="14.00">google_compute_instance.tech&#45;instance&#45;primary</text>
</g>
<!-- google_compute_subnetwork.techsubnet_primary -->
<g id="node9" class="node">
<title>google_compute_subnetwork.techsubnet_primary</title>
<polygon fill="none" stroke="black" points="739.5,-36 376.5,-36 376.5,0 739.5,0 739.5,-36"/>
<text text-anchor="middle" x="558" y="-14.3" font-family="sans-serif" font-size="14.00">google_compute_subnetwork.techsubnet_primary</text>
</g>
<!-- google_compute_instance.tech&#45;instance&#45;primary&#45;&gt;google_compute_subnetwork.techsubnet_primary -->
<g id="edge5" class="edge">
<title>google_compute_instance.tech&#45;instance&#45;primary&#45;&gt;google_compute_subnetwork.techsubnet_primary</title>
<path fill="none" stroke="black" d="M792.46,-18C778.42,-18 764.19,-18 750.05,-18"/>
<polygon fill="black" stroke="black" points="749.78,-14.5 739.78,-18 749.78,-21.5 749.78,-14.5"/>
</g>
<!-- google_compute_instance.tech&#45;instance&#45;secondary -->
<g id="node6" class="node">
<title>google_compute_instance.tech&#45;instance&#45;secondary</title>
<polygon fill="none" stroke="black" points="1155,-198 784,-198 784,-162 1155,-162 1155,-198"/>
<text text-anchor="middle" x="969.5" y="-176.3" font-family="sans-serif" font-size="14.00">google_compute_instance.tech&#45;instance&#45;secondary</text>
</g>
<!-- google_compute_subnetwork.techsubnet_secondary -->
<g id="node10" class="node">
<title>google_compute_subnetwork.techsubnet_secondary</title>
<polygon fill="none" stroke="black" points="748,-198 368,-198 368,-162 748,-162 748,-198"/>
<text text-anchor="middle" x="558" y="-176.3" font-family="sans-serif" font-size="14.00">google_compute_subnetwork.techsubnet_secondary</text>
</g>
<!-- google_compute_instance.tech&#45;instance&#45;secondary&#45;&gt;google_compute_subnetwork.techsubnet_secondary -->
<g id="edge6" class="edge">
<title>google_compute_instance.tech&#45;instance&#45;secondary&#45;&gt;google_compute_subnetwork.techsubnet_secondary</title>
<path fill="none" stroke="black" d="M783.82,-180C775.28,-180 766.69,-180 758.12,-180"/>
<polygon fill="black" stroke="black" points="758.07,-176.5 748.07,-180 758.07,-183.5 758.07,-176.5"/>
</g>
<!-- google_compute_subnetwork.techsubnet_primary&#45;&gt;google_compute_network.techvpc_primary -->
<g id="edge7" class="edge">
<title>google_compute_subnetwork.techsubnet_primary&#45;&gt;google_compute_network.techvpc_primary</title>
<path fill="none" stroke="black" d="M426.86,-36.02C388.53,-41.33 346.43,-47.16 307.48,-52.55"/>
<polygon fill="black" stroke="black" points="306.55,-49.14 297.12,-53.98 307.51,-56.08 306.55,-49.14"/>
</g>
<!-- google_compute_subnetwork.techsubnet_secondary&#45;&gt;google_compute_network.techvpc_secondary -->
<g id="edge8" class="edge">
<title>google_compute_subnetwork.techsubnet_secondary&#45;&gt;google_compute_network.techvpc_secondary</title>
<path fill="none" stroke="black" d="M426.86,-198.02C388.53,-203.33 346.43,-209.16 307.48,-214.55"/>
<polygon fill="black" stroke="black" points="306.55,-211.14 297.12,-215.98 307.51,-218.08 306.55,-211.14"/>
</g>
</g>
</svg>
