<?xml version="1.0" encoding="UTF-8" standalone="no"?>
<!DOCTYPE svg PUBLIC "-//W3C//DTD SVG 1.1//EN"
 "http://www.w3.org/Graphics/SVG/1.1/DTD/svg11.dtd">
<!-- Generated by graphviz version 2.43.0 (0)
 -->
<!-- Title: G Pages: 1 -->
<svg width="929pt" height="206pt"
 viewBox="0.00 0.00 929.00 206.00" xmlns="http://www.w3.org/2000/svg" xmlns:xlink="http://www.w3.org/1999/xlink">
<g id="graph0" class="graph" transform="scale(1 1) rotate(0) translate(4 202)">
<title>G</title>
<polygon fill="white" stroke="transparent" points="-4,4 -4,-202 925,-202 925,4 -4,4"/>
<!-- google_compute_firewall.fw_http -->
<g id="node1" class="node">
<title>google_compute_firewall.fw_http</title>
<polygon fill="none" stroke="black" points="561,-198 319,-198 319,-162 561,-162 561,-198"/>
<text text-anchor="middle" x="440" y="-176.3" font-family="sans-serif" font-size="14.00">google_compute_firewall.fw_http</text>
</g>
<!-- google_compute_network.techvpc -->
<g id="node4" class="node">
<title>google_compute_network.techvpc</title>
<polygon fill="none" stroke="black" points="253,-144 0,-144 0,-108 253,-108 253,-144"/>
<text text-anchor="middle" x="126.5" y="-122.3" font-family="sans-serif" font-size="14.00">google_compute_network.techvpc</text>
</g>
<!-- google_compute_firewall.fw_http&#45;&gt;google_compute_network.techvpc -->
<g id="edge1" class="edge">
<title>google_compute_firewall.fw_http&#45;&gt;google_compute_network.techvpc</title>
<path fill="none" stroke="black" d="M334.84,-161.94C304.97,-156.76 272.24,-151.09 241.79,-145.81"/>
<polygon fill="black" stroke="black" points="242.01,-142.3 231.56,-144.04 240.82,-149.2 242.01,-142.3"/>
</g>
<!-- google_compute_firewall.fw_ssh -->
<g id="node2" class="node">
<title>google_compute_firewall.fw_ssh</title>
<polygon fill="none" stroke="black" points="559,-144 321,-144 321,-108 559,-108 559,-144"/>
<text text-anchor="middle" x="440" y="-122.3" font-family="sans-serif" font-size="14.00">google_compute_firewall.fw_ssh</text>
</g>
<!-- google_compute_firewall.fw_ssh&#45;&gt;google_compute_network.techvpc -->
<g id="edge2" class="edge">
<title>google_compute_firewall.fw_ssh&#45;&gt;google_compute_network.techvpc</title>
<path fill="none" stroke="black" d="M320.79,-126C302.04,-126 282.53,-126 263.41,-126"/>
<polygon fill="black" stroke="black" points="263.15,-122.5 253.15,-126 263.15,-129.5 263.15,-122.5"/>
</g>
<!-- google_compute_instance.tech&#45;instance -->
<g id="node3" class="node">
<title>google_compute_instance.tech&#45;instance</title>
<polygon fill="none" stroke="black" points="921,-117 627,-117 627,-81 921,-81 921,-117"/>
<text text-anchor="middle" x="774" y="-95.3" font-family="sans-serif" font-size="14.00">google_compute_instance.tech&#45;instance</text>
</g>
<!-- google_compute_instance.tech&#45;instance&#45;&gt;google_compute_firewall.fw_http -->
<g id="edge3" class="edge">
<title>google_compute_instance.tech&#45;instance&#45;&gt;google_compute_firewall.fw_http</title>
<path fill="none" stroke="black" d="M718.07,-117.02C682.18,-128.37 634.13,-142.75 591,-153 580.75,-155.44 570.06,-157.77 559.32,-159.97"/>
<polygon fill="black" stroke="black" points="558.56,-156.55 549.45,-161.95 559.94,-163.41 558.56,-156.55"/>
</g>
<!-- google_compute_instance.tech&#45;instance&#45;&gt;google_compute_firewall.fw_ssh -->
<g id="edge4" class="edge">
<title>google_compute_instance.tech&#45;instance&#45;&gt;google_compute_firewall.fw_ssh</title>
<path fill="none" stroke="black" d="M626.9,-110.88C607.65,-112.45 588.05,-114.04 569.13,-115.58"/>
<polygon fill="black" stroke="black" points="568.69,-112.1 559.01,-116.4 569.26,-119.08 568.69,-112.1"/>
</g>
<!-- google_compute_subnetwork.techsubnet -->
<g id="node5" class="node">
<title>google_compute_subnetwork.techsubnet</title>
<polygon fill="none" stroke="black" points="591,-90 289,-90 289,-54 591,-54 591,-90"/>
<text text-anchor="middle" x="440" y="-68.3" font-family="sans-serif" font-size="14.00">google_compute_subnetwork.techsubnet</text>
</g>
<!-- google_compute_instance.tech&#45;instance&#45;&gt;google_compute_subnetwork.techsubnet -->
<g id="edge5" class="edge">
<title>google_compute_instance.tech&#45;instance&#45;&gt;google_compute_subnetwork.techsubnet</title>
<path fill="none" stroke="black" d="M626.9,-87.12C618.39,-86.43 609.82,-85.73 601.27,-85.03"/>
<polygon fill="black" stroke="black" points="601.49,-81.54 591.24,-84.22 600.93,-88.52 601.49,-81.54"/>
</g>
<!-- google_storage_bucket.backup&#45;bucket -->
<g id="node6" class="node">
<title>google_storage_bucket.backup&#45;bucket</title>
<polygon fill="none" stroke="black" points="581,-36 299,-36 299,0 581,0 581,-36"/>
<text text-anchor="middle" x="440" y="-14.3" font-family="sans-serif" font-size="14.00">google_storage_bucket.backup&#45;bucket</text>
</g>
<!-- google_compute_instance.tech&#45;instance&#45;&gt;google_storage_bucket.backup&#45;bucket -->
<g id="edge6" class="edge">
<title>google_compute_instance.tech&#45;instance&#45;&gt;google_storage_bucket.backup&#45;bucket</title>
<path fill="none" stroke="black" d="M718.07,-80.98C682.18,-69.63 634.13,-55.25 591,-45 580.75,-42.56 570.06,-40.23 559.32,-38.03"/>
<polygon fill="black" stroke="black" points="559.94,-34.59 549.45,-36.05 558.56,-41.45 559.94,-34.59"/>
</g>
<!-- google_compute_subnetwork.techsubnet&#45;&gt;google_compute_network.techvpc -->
<g id="edge7" class="edge">
<title>google_compute_subnetwork.techsubnet&#45;&gt;google_compute_network.techvpc</title>
<path fill="none" stroke="black" d="M334.84,-90.06C304.97,-95.24 272.24,-100.91 241.79,-106.19"/>
<polygon fill="black" stroke="black" points="240.82,-102.8 231.56,-107.96 242.01,-109.7 240.82,-102.8"/>
</g>
</g>
</svg>
